
<svg aria-hidden="true" style="position:absolute;width:0;height:0;overflow:hidden" xmlns="http://www.w3.org/2000/svg"><defs>
<symbol id="icon-logo-icon" viewBox="0 0 32 32"><path fill="none" stroke="#818181" style="stroke:var(--color1, #818181)" stroke-linejoin="round" stroke-linecap="round" stroke-width="2.67"
 d="M26.43 2.67H5.57a2.9 2.9 0 0 0-2.9 2.9v20.86c0 1.6 1.3 2.9 2.9 2.9h20.86c1.6 0 2.9-1.3 2.9-2.9V5.57c0-1.6-1.3-2.9-2.9-2.9zM9.33 2.67v26.66M22.67 2.67v26.66M2.67 16h26.66M2.67 9.33h6.66M2.67 22.67h6.66M22.67 22.67h6.66M22.67 9.33h6.66"/></symbol>
 <symbol id="icon-search" viewBox="0 0 32 32">
<path fill="none" stroke="#fff" style="stroke: var(--color3, #fff)" stroke-linejoin="round" stroke-linecap="round" stroke-miterlimit="4" stroke-width="2.6667" d="M14.667 25.333c5.891 0 10.667-4.776 10.667-10.667s-4.776-10.667-10.667-10.667c-5.891 0-10.667 4.776-10.667 10.667s4.776 10.667 10.667 10.667z"></path>
<path fill="none" stroke="#fff" style="stroke: var(--color3, #fff)" stroke-linejoin="round" stroke-linecap="round" stroke-miterlimit="4" stroke-width="2.6667" d="M28 28.001l-5.8-5.8"></path>
</symbol></defs></svg>